<mxfile host="app.diagrams.net" agent="Mozilla/5.0 (Windows NT 10.0; Win64; x64) AppleWebKit/537.36 (KHTML, like Gecko) Chrome/131.0.0.0 Safari/537.36" version="25.0.3">
  <diagram name="Page-1" id="F2ajOnZY6f7qFGTdP2zr">
    <mxGraphModel dx="2390" dy="1243" grid="1" gridSize="10" guides="1" tooltips="1" connect="1" arrows="1" fold="1" page="1" pageScale="1" pageWidth="850" pageHeight="1100" math="0" shadow="0">
      <root>
        <mxCell id="0" />
        <mxCell id="1" parent="0" />
        <mxCell id="ePJPPTmYgowWuQNThrpA-9" style="edgeStyle=orthogonalEdgeStyle;rounded=0;orthogonalLoop=1;jettySize=auto;html=1;entryX=0.5;entryY=0;entryDx=0;entryDy=0;" edge="1" parent="1" source="ePJPPTmYgowWuQNThrpA-1" target="ePJPPTmYgowWuQNThrpA-6">
          <mxGeometry relative="1" as="geometry" />
        </mxCell>
        <mxCell id="ePJPPTmYgowWuQNThrpA-1" value="&lt;font style=&quot;font-size: 24px;&quot;&gt;start&lt;/font&gt;" style="strokeWidth=2;html=1;shape=mxgraph.flowchart.start_1;whiteSpace=wrap;" vertex="1" parent="1">
          <mxGeometry x="375" y="40" width="100" height="60" as="geometry" />
        </mxCell>
        <mxCell id="ePJPPTmYgowWuQNThrpA-11" style="edgeStyle=orthogonalEdgeStyle;rounded=0;orthogonalLoop=1;jettySize=auto;html=1;entryX=0.5;entryY=0;entryDx=0;entryDy=0;" edge="1" parent="1" source="ePJPPTmYgowWuQNThrpA-2" target="ePJPPTmYgowWuQNThrpA-4">
          <mxGeometry relative="1" as="geometry" />
        </mxCell>
        <mxCell id="ePJPPTmYgowWuQNThrpA-19" style="edgeStyle=orthogonalEdgeStyle;rounded=0;orthogonalLoop=1;jettySize=auto;html=1;entryX=0.5;entryY=0;entryDx=0;entryDy=0;" edge="1" parent="1" source="ePJPPTmYgowWuQNThrpA-2" target="ePJPPTmYgowWuQNThrpA-15">
          <mxGeometry relative="1" as="geometry">
            <mxPoint x="425" y="540" as="targetPoint" />
          </mxGeometry>
        </mxCell>
        <mxCell id="ePJPPTmYgowWuQNThrpA-2" value="while (value != -1)" style="rhombus;whiteSpace=wrap;html=1;" vertex="1" parent="1">
          <mxGeometry x="354" y="250" width="142" height="70" as="geometry" />
        </mxCell>
        <mxCell id="ePJPPTmYgowWuQNThrpA-12" style="edgeStyle=orthogonalEdgeStyle;rounded=0;orthogonalLoop=1;jettySize=auto;html=1;entryX=0.5;entryY=0;entryDx=0;entryDy=0;" edge="1" parent="1" source="ePJPPTmYgowWuQNThrpA-4" target="ePJPPTmYgowWuQNThrpA-7">
          <mxGeometry relative="1" as="geometry" />
        </mxCell>
        <mxCell id="ePJPPTmYgowWuQNThrpA-4" value="Array1[i] = value" style="rounded=1;whiteSpace=wrap;html=1;absoluteArcSize=1;arcSize=14;strokeWidth=2;" vertex="1" parent="1">
          <mxGeometry x="540" y="340" width="180" height="40" as="geometry" />
        </mxCell>
        <mxCell id="ePJPPTmYgowWuQNThrpA-5" value="&lt;font style=&quot;font-size: 24px;&quot;&gt;end&lt;/font&gt;" style="strokeWidth=2;html=1;shape=mxgraph.flowchart.start_1;whiteSpace=wrap;" vertex="1" parent="1">
          <mxGeometry x="374.75" y="1710" width="100" height="60" as="geometry" />
        </mxCell>
        <mxCell id="ePJPPTmYgowWuQNThrpA-10" style="edgeStyle=orthogonalEdgeStyle;rounded=0;orthogonalLoop=1;jettySize=auto;html=1;entryX=0.5;entryY=0;entryDx=0;entryDy=0;" edge="1" parent="1" source="ePJPPTmYgowWuQNThrpA-6" target="ePJPPTmYgowWuQNThrpA-2">
          <mxGeometry relative="1" as="geometry" />
        </mxCell>
        <mxCell id="ePJPPTmYgowWuQNThrpA-6" value="input value" style="shape=parallelogram;perimeter=parallelogramPerimeter;whiteSpace=wrap;html=1;fixedSize=1;" vertex="1" parent="1">
          <mxGeometry x="340" y="150" width="170" height="40" as="geometry" />
        </mxCell>
        <mxCell id="ePJPPTmYgowWuQNThrpA-13" style="edgeStyle=orthogonalEdgeStyle;rounded=0;orthogonalLoop=1;jettySize=auto;html=1;entryX=0.5;entryY=0;entryDx=0;entryDy=0;" edge="1" parent="1" source="ePJPPTmYgowWuQNThrpA-7" target="ePJPPTmYgowWuQNThrpA-8">
          <mxGeometry relative="1" as="geometry" />
        </mxCell>
        <mxCell id="ePJPPTmYgowWuQNThrpA-7" value="i+=" style="rounded=1;whiteSpace=wrap;html=1;absoluteArcSize=1;arcSize=14;strokeWidth=2;" vertex="1" parent="1">
          <mxGeometry x="540" y="420" width="180" height="40" as="geometry" />
        </mxCell>
        <mxCell id="ePJPPTmYgowWuQNThrpA-14" style="edgeStyle=orthogonalEdgeStyle;rounded=0;orthogonalLoop=1;jettySize=auto;html=1;entryX=1;entryY=1;entryDx=0;entryDy=0;" edge="1" parent="1" source="ePJPPTmYgowWuQNThrpA-8" target="ePJPPTmYgowWuQNThrpA-2">
          <mxGeometry relative="1" as="geometry" />
        </mxCell>
        <mxCell id="ePJPPTmYgowWuQNThrpA-8" value="output&lt;div&gt;&quot;Input value to Array1 &quot;[&quot;, i, &quot;]&quot;&lt;/div&gt;" style="shape=parallelogram;perimeter=parallelogramPerimeter;whiteSpace=wrap;html=1;fixedSize=1;" vertex="1" parent="1">
          <mxGeometry x="531.25" y="500" width="197.5" height="40" as="geometry" />
        </mxCell>
        <mxCell id="ePJPPTmYgowWuQNThrpA-17" style="edgeStyle=orthogonalEdgeStyle;rounded=0;orthogonalLoop=1;jettySize=auto;html=1;entryX=0.5;entryY=0;entryDx=0;entryDy=0;" edge="1" parent="1" source="ePJPPTmYgowWuQNThrpA-15" target="ePJPPTmYgowWuQNThrpA-16">
          <mxGeometry relative="1" as="geometry" />
        </mxCell>
        <mxCell id="ePJPPTmYgowWuQNThrpA-21" style="edgeStyle=orthogonalEdgeStyle;rounded=0;orthogonalLoop=1;jettySize=auto;html=1;entryX=0.5;entryY=0;entryDx=0;entryDy=0;" edge="1" parent="1" source="ePJPPTmYgowWuQNThrpA-15" target="ePJPPTmYgowWuQNThrpA-20">
          <mxGeometry relative="1" as="geometry" />
        </mxCell>
        <mxCell id="ePJPPTmYgowWuQNThrpA-15" value="for (j &amp;lt; i, j++)" style="rhombus;whiteSpace=wrap;html=1;" vertex="1" parent="1">
          <mxGeometry x="354" y="550" width="142" height="70" as="geometry" />
        </mxCell>
        <mxCell id="ePJPPTmYgowWuQNThrpA-18" style="edgeStyle=orthogonalEdgeStyle;rounded=0;orthogonalLoop=1;jettySize=auto;html=1;entryX=1;entryY=1;entryDx=0;entryDy=0;" edge="1" parent="1" source="ePJPPTmYgowWuQNThrpA-16" target="ePJPPTmYgowWuQNThrpA-15">
          <mxGeometry relative="1" as="geometry" />
        </mxCell>
        <mxCell id="ePJPPTmYgowWuQNThrpA-16" value="Array2[j] = 0" style="rounded=1;whiteSpace=wrap;html=1;absoluteArcSize=1;arcSize=14;strokeWidth=2;" vertex="1" parent="1">
          <mxGeometry x="540" y="630" width="180" height="40" as="geometry" />
        </mxCell>
        <mxCell id="ePJPPTmYgowWuQNThrpA-23" style="edgeStyle=orthogonalEdgeStyle;rounded=0;orthogonalLoop=1;jettySize=auto;html=1;entryX=0.5;entryY=0;entryDx=0;entryDy=0;" edge="1" parent="1" source="ePJPPTmYgowWuQNThrpA-20" target="ePJPPTmYgowWuQNThrpA-22">
          <mxGeometry relative="1" as="geometry" />
        </mxCell>
        <mxCell id="ePJPPTmYgowWuQNThrpA-20" value="output&lt;div&gt;&quot;Array 1 =&quot;&lt;/div&gt;" style="shape=parallelogram;perimeter=parallelogramPerimeter;whiteSpace=wrap;html=1;fixedSize=1;" vertex="1" parent="1">
          <mxGeometry x="326" y="710" width="197.5" height="40" as="geometry" />
        </mxCell>
        <mxCell id="ePJPPTmYgowWuQNThrpA-25" style="edgeStyle=orthogonalEdgeStyle;rounded=0;orthogonalLoop=1;jettySize=auto;html=1;entryX=0.5;entryY=0;entryDx=0;entryDy=0;" edge="1" parent="1" source="ePJPPTmYgowWuQNThrpA-22" target="ePJPPTmYgowWuQNThrpA-24">
          <mxGeometry relative="1" as="geometry" />
        </mxCell>
        <mxCell id="ePJPPTmYgowWuQNThrpA-30" style="edgeStyle=orthogonalEdgeStyle;rounded=0;orthogonalLoop=1;jettySize=auto;html=1;entryX=0.5;entryY=0;entryDx=0;entryDy=0;" edge="1" parent="1" source="ePJPPTmYgowWuQNThrpA-22" target="ePJPPTmYgowWuQNThrpA-27">
          <mxGeometry relative="1" as="geometry" />
        </mxCell>
        <mxCell id="ePJPPTmYgowWuQNThrpA-22" value="for (j &amp;lt; i, j++)" style="rhombus;whiteSpace=wrap;html=1;" vertex="1" parent="1">
          <mxGeometry x="354" y="790" width="142" height="70" as="geometry" />
        </mxCell>
        <mxCell id="ePJPPTmYgowWuQNThrpA-26" style="edgeStyle=orthogonalEdgeStyle;rounded=0;orthogonalLoop=1;jettySize=auto;html=1;entryX=1;entryY=1;entryDx=0;entryDy=0;" edge="1" parent="1" source="ePJPPTmYgowWuQNThrpA-24" target="ePJPPTmYgowWuQNThrpA-22">
          <mxGeometry relative="1" as="geometry" />
        </mxCell>
        <mxCell id="ePJPPTmYgowWuQNThrpA-24" value="output Array1[j]" style="shape=parallelogram;perimeter=parallelogramPerimeter;whiteSpace=wrap;html=1;fixedSize=1;" vertex="1" parent="1">
          <mxGeometry x="522.5" y="880" width="197.5" height="40" as="geometry" />
        </mxCell>
        <mxCell id="ePJPPTmYgowWuQNThrpA-31" style="edgeStyle=orthogonalEdgeStyle;rounded=0;orthogonalLoop=1;jettySize=auto;html=1;entryX=0.5;entryY=0;entryDx=0;entryDy=0;" edge="1" parent="1" source="ePJPPTmYgowWuQNThrpA-27" target="ePJPPTmYgowWuQNThrpA-28">
          <mxGeometry relative="1" as="geometry" />
        </mxCell>
        <mxCell id="ePJPPTmYgowWuQNThrpA-27" value="output&lt;div&gt;&quot;Array 2 =&quot;&lt;/div&gt;" style="shape=parallelogram;perimeter=parallelogramPerimeter;whiteSpace=wrap;html=1;fixedSize=1;" vertex="1" parent="1">
          <mxGeometry x="326" y="950" width="197.5" height="40" as="geometry" />
        </mxCell>
        <mxCell id="ePJPPTmYgowWuQNThrpA-32" style="edgeStyle=orthogonalEdgeStyle;rounded=0;orthogonalLoop=1;jettySize=auto;html=1;entryX=0.5;entryY=0;entryDx=0;entryDy=0;" edge="1" parent="1" source="ePJPPTmYgowWuQNThrpA-28" target="ePJPPTmYgowWuQNThrpA-29">
          <mxGeometry relative="1" as="geometry" />
        </mxCell>
        <mxCell id="ePJPPTmYgowWuQNThrpA-38" style="edgeStyle=orthogonalEdgeStyle;rounded=0;orthogonalLoop=1;jettySize=auto;html=1;entryX=0.5;entryY=0;entryDx=0;entryDy=0;" edge="1" parent="1" source="ePJPPTmYgowWuQNThrpA-28" target="ePJPPTmYgowWuQNThrpA-34">
          <mxGeometry relative="1" as="geometry" />
        </mxCell>
        <mxCell id="ePJPPTmYgowWuQNThrpA-28" value="for (j &amp;lt; i, j++)" style="rhombus;whiteSpace=wrap;html=1;" vertex="1" parent="1">
          <mxGeometry x="354" y="1050" width="142" height="70" as="geometry" />
        </mxCell>
        <mxCell id="ePJPPTmYgowWuQNThrpA-33" style="edgeStyle=orthogonalEdgeStyle;rounded=0;orthogonalLoop=1;jettySize=auto;html=1;entryX=1;entryY=1;entryDx=0;entryDy=0;" edge="1" parent="1" source="ePJPPTmYgowWuQNThrpA-29" target="ePJPPTmYgowWuQNThrpA-28">
          <mxGeometry relative="1" as="geometry" />
        </mxCell>
        <mxCell id="ePJPPTmYgowWuQNThrpA-29" value="output Array2[j]" style="shape=parallelogram;perimeter=parallelogramPerimeter;whiteSpace=wrap;html=1;fixedSize=1;" vertex="1" parent="1">
          <mxGeometry x="522.5" y="1130" width="197.5" height="40" as="geometry" />
        </mxCell>
        <mxCell id="ePJPPTmYgowWuQNThrpA-39" style="edgeStyle=orthogonalEdgeStyle;rounded=0;orthogonalLoop=1;jettySize=auto;html=1;entryX=0.5;entryY=0;entryDx=0;entryDy=0;" edge="1" parent="1" source="ePJPPTmYgowWuQNThrpA-34" target="ePJPPTmYgowWuQNThrpA-35">
          <mxGeometry relative="1" as="geometry" />
        </mxCell>
        <mxCell id="ePJPPTmYgowWuQNThrpA-34" value="output&lt;div&gt;&quot;--| Copy Data from Array1 to Array2&quot;&lt;/div&gt;" style="shape=parallelogram;perimeter=parallelogramPerimeter;whiteSpace=wrap;html=1;fixedSize=1;" vertex="1" parent="1">
          <mxGeometry x="318" y="1210" width="214" height="40" as="geometry" />
        </mxCell>
        <mxCell id="ePJPPTmYgowWuQNThrpA-40" style="edgeStyle=orthogonalEdgeStyle;rounded=0;orthogonalLoop=1;jettySize=auto;html=1;entryX=0.5;entryY=0;entryDx=0;entryDy=0;" edge="1" parent="1" source="ePJPPTmYgowWuQNThrpA-35" target="ePJPPTmYgowWuQNThrpA-37">
          <mxGeometry relative="1" as="geometry" />
        </mxCell>
        <mxCell id="ePJPPTmYgowWuQNThrpA-45" style="edgeStyle=orthogonalEdgeStyle;rounded=0;orthogonalLoop=1;jettySize=auto;html=1;entryX=0.5;entryY=0;entryDx=0;entryDy=0;" edge="1" parent="1" source="ePJPPTmYgowWuQNThrpA-35" target="ePJPPTmYgowWuQNThrpA-42">
          <mxGeometry relative="1" as="geometry" />
        </mxCell>
        <mxCell id="ePJPPTmYgowWuQNThrpA-35" value="for (j &amp;lt; i, j++)" style="rhombus;whiteSpace=wrap;html=1;" vertex="1" parent="1">
          <mxGeometry x="354" y="1290" width="142" height="70" as="geometry" />
        </mxCell>
        <mxCell id="ePJPPTmYgowWuQNThrpA-41" style="edgeStyle=orthogonalEdgeStyle;rounded=0;orthogonalLoop=1;jettySize=auto;html=1;entryX=1;entryY=1;entryDx=0;entryDy=0;" edge="1" parent="1" source="ePJPPTmYgowWuQNThrpA-37" target="ePJPPTmYgowWuQNThrpA-35">
          <mxGeometry relative="1" as="geometry" />
        </mxCell>
        <mxCell id="ePJPPTmYgowWuQNThrpA-37" value="Array2[j] = Array1[j]" style="rounded=1;whiteSpace=wrap;html=1;absoluteArcSize=1;arcSize=14;strokeWidth=2;" vertex="1" parent="1">
          <mxGeometry x="523.5" y="1380" width="180" height="40" as="geometry" />
        </mxCell>
        <mxCell id="ePJPPTmYgowWuQNThrpA-46" style="edgeStyle=orthogonalEdgeStyle;rounded=0;orthogonalLoop=1;jettySize=auto;html=1;entryX=0.5;entryY=0;entryDx=0;entryDy=0;" edge="1" parent="1" source="ePJPPTmYgowWuQNThrpA-42" target="ePJPPTmYgowWuQNThrpA-43">
          <mxGeometry relative="1" as="geometry" />
        </mxCell>
        <mxCell id="ePJPPTmYgowWuQNThrpA-42" value="output&lt;div&gt;&quot;Array 2 =&quot;&lt;/div&gt;" style="shape=parallelogram;perimeter=parallelogramPerimeter;whiteSpace=wrap;html=1;fixedSize=1;" vertex="1" parent="1">
          <mxGeometry x="326.25" y="1460" width="197.5" height="40" as="geometry" />
        </mxCell>
        <mxCell id="ePJPPTmYgowWuQNThrpA-47" style="edgeStyle=orthogonalEdgeStyle;rounded=0;orthogonalLoop=1;jettySize=auto;html=1;entryX=0.5;entryY=0;entryDx=0;entryDy=0;" edge="1" parent="1" source="ePJPPTmYgowWuQNThrpA-43" target="ePJPPTmYgowWuQNThrpA-44">
          <mxGeometry relative="1" as="geometry" />
        </mxCell>
        <mxCell id="ePJPPTmYgowWuQNThrpA-43" value="for (j &amp;lt; i, j++)" style="rhombus;whiteSpace=wrap;html=1;" vertex="1" parent="1">
          <mxGeometry x="354" y="1550" width="142" height="70" as="geometry" />
        </mxCell>
        <mxCell id="ePJPPTmYgowWuQNThrpA-48" style="edgeStyle=orthogonalEdgeStyle;rounded=0;orthogonalLoop=1;jettySize=auto;html=1;entryX=1;entryY=1;entryDx=0;entryDy=0;" edge="1" parent="1" source="ePJPPTmYgowWuQNThrpA-44" target="ePJPPTmYgowWuQNThrpA-43">
          <mxGeometry relative="1" as="geometry" />
        </mxCell>
        <mxCell id="ePJPPTmYgowWuQNThrpA-44" value="output Array2[j]" style="shape=parallelogram;perimeter=parallelogramPerimeter;whiteSpace=wrap;html=1;fixedSize=1;" vertex="1" parent="1">
          <mxGeometry x="522.5" y="1630" width="197.5" height="40" as="geometry" />
        </mxCell>
        <mxCell id="ePJPPTmYgowWuQNThrpA-49" style="edgeStyle=orthogonalEdgeStyle;rounded=0;orthogonalLoop=1;jettySize=auto;html=1;entryX=0.5;entryY=0;entryDx=0;entryDy=0;entryPerimeter=0;" edge="1" parent="1" source="ePJPPTmYgowWuQNThrpA-43" target="ePJPPTmYgowWuQNThrpA-5">
          <mxGeometry relative="1" as="geometry" />
        </mxCell>
      </root>
    </mxGraphModel>
  </diagram>
</mxfile>
